# xmcd CD database file
#
# Track frame offsets:
#	150
#	19174
#	49752
#	77138
#	103788
#	128372
#	165000
#	191046
#	223671
#
# Disc length: 3267 seconds
#
# Revision: 0
# Processed by: cddbd v1.5.2PL0 Copyright (c) Steve Scherf et al.
# Submitted via: CDex 1.51
#
DISCID=6c0cc109
DTITLE=Ethno Jazz - Suoni da tutt il mondo
DYEAR=2004
DGENRE=Jazz
TTITLE0=Rhumba Multikulti
TTITLE1=Tsarka
TTITLE2=Whoza Mtwana
TTITLE3=Rajasthan
TTITLE4=Nunca Mas
TTITLE5=Gwagwa o de
TTITLE6=Sunny Island
TTITLE7=Melting Pot
TTITLE8=Lotus Feet
EXTD=YEAR: 2004
EXTT0=
EXTT1=
EXTT2=
EXTT3=
EXTT4=
EXTT5=
EXTT6=
EXTT7=
EXTT8=
PLAYORDER=
